<?xml version="1.0" encoding="utf-8"?>
<!-- Generator: Adobe Illustrator 17.1.0, SVG Export Plug-In . SVG Version: 6.00 Build 0)  -->
<!DOCTYPE svg PUBLIC "-//W3C//DTD SVG 1.1//EN" "http://www.w3.org/Graphics/SVG/1.1/DTD/svg11.dtd">
<svg version="1.1" id="Layer_1" xmlns="http://www.w3.org/2000/svg" xmlns:xlink="http://www.w3.org/1999/xlink" x="0px" y="0px"
	 viewBox="0 0 1080 1080" enable-background="new 0 0 1080 1080" xml:space="preserve">
<path fill="#F6F5F0" d="M357.1,163.9l11.3-89.6c0,0-48.4,12.6-57.4,37.1s2.7,39.1,8.9,45.7s17.9,21.7,9.4,28.3s-21.2,24.1-21.7,60
	c-0.5,35.9-1,266.4-1,266.4s-13.2,23.6-14.7,29.8c-1.4,6.1,7.6,0,7.6,0s-2.4,22.7-5.7,34c-3.3,11.3,9.9,3.8,9.9,3.8s-2.8,26-9,40.6
	c-6.1,14.6,9,6.6,9,6.6s-3.3,31.2-9,42.5c-5.7,11.3,11.3,0,11.3,0s-2.4,35.9-9.9,46.8c-7.6,10.9,17.5-9.4,16.1,0
	c-1.4,9.4-3.3,41.1-3.3,45.8s12.8-12.8,11.8,0c-0.9,12.8,31.4,207.8,31.4,207.8l49.8,2.4V813.7c0,0,5.2-9.7,6.1,2.6
	c0.9,12.3,20.3,154.2,20.3,154.2h52.9V787.2c0,0,4.3-4.7,16.5,2.8c12.3,7.6,18.4-10.4,31.2,3.3c12.8,13.7,17-4.3,26.9,3.8
	c9.9,8,15.6-7.1,15.6-7.1s11.3-5.4,11.8,0.7c0.5,6.1,0,179.7,0,179.7h51c0,0,21-112.4,20.5-129c-0.5-16.5,7.8-55.7,7.8-35.9
	c0,19.8,0,168.6,0,168.6h51c0,0,18.9-102,20.3-129c1.4-26.9,10.4-85,10.4-85s4.3-2.8,7.6,2.8c3.3,5.7,3.3-22.2,0-33.5
	c-3.3-11.3,12.8,2.8,12.8,2.8s-5.2-28.8-5.2-40.2c0-11.3,10.9-4.3,10.9-4.3s-5.7-26.5-5.7-37.8c0-11.3,9.9-0.5,9.9-0.5
	s-3.3-20.8-7.6-35.4c-4.3-14.6-9-33.5,0.9-32.6s39.2-7.6,28.8-17s1.9-7.1-3.8-15.6s-16.5-8.5-15.1-13.7c1.4-5.2,1.4-11.5-3.3-11.2
	c-4.7,0.3-9.4,5.5-15.6,6.4c-6.1,0.9-18.9-3-13.2-6.4c5.7-3.5-7.6-5.8-21.7-2.5c-14.2,3.3-18.4-0.9-8.5-7.1
	c9.9-6.1-14.2,1.9-26.5,4.7c-12.3,2.8-18.4-2.4-13.2-4.7c5.2-2.4-6.6-7.6-23.6,1.9s-28.8,3.8-21.3,0s-12.3,0.5-24.1,3.3
	c-11.8,2.8-5.7-3.8-2.8-6.6c2.8-2.8-10.9-0.5-28.8,4.7s-17.5,0-12.8-5.7c4.7-5.7-26.5,9.4-44.4,9c-18-0.5-38.3-13.2-41.6-53.9
	c-3.3-40.6-4.3-235.2-4.3-235.2s1.4-27.4-13.7-42.5s-15.1-17.5-5.7-27.4c9.4-9.9,17.5-41.1,8.5-55.3s-62.8-32.7-62.8-32.7l26.5,91.8
	L357.1,163.9z"/>
<path fill="#757575" d="M351.6,969.2c0,0,2.1,28.3,2.8,30.4c0.7,2.1,47.7,2.5,47.7,2.5v-29.8L351.6,969.2z"/>
<path fill="#757575" d="M428.5,971.6c0,0,3.7,5.8,4.8,12.2c1.2,6.4,1.5,20.7,1.5,20.7h46.5v-32.1L428.5,971.6z"/>
<polygon fill="#757575" points="583.4,970.5 585.3,1002.2 631,1003.1 634.4,970.5 "/>
<polygon fill="#757575" points="662.6,973.4 664.4,1000.8 710,1000.8 713.8,974.3 "/>
<circle fill="#E8E8E8" cx="369.3" cy="864.1" r="27.1"/>
<circle fill="#E8E8E8" cx="449.2" cy="864.1" r="27.1"/>
<circle fill="#E8E8E8" cx="615.5" cy="864.1" r="27.1"/>
<circle fill="#E8E8E8" cx="698.7" cy="864.1" r="27.1"/>
<path fill="#E3E3E3" d="M413.3,284.6c0,13.6-11,24.6-24.6,24.6l0,0c-13.6,0-24.6-11-24.6-24.6v-18.9c0-13.6,11-24.6,24.6-24.6l0,0
	c13.6,0,24.6,11,24.6,24.6V284.6z"/>
<ellipse fill="#474747" cx="389.7" cy="259.8" rx="12.3" ry="7.8"/>
<path fill="none" stroke="#474747" stroke-miterlimit="10" d="M372.3,276.6c0,0,8.7,7.8,17.5,7.6c8.7-0.2,18.9-7.6,18.9-7.6"/>
<line fill="none" stroke="#474747" stroke-miterlimit="10" x1="389.7" y1="267.6" x2="390.4" y2="284.1"/>
<circle fill="#444443" cx="330.2" cy="257" r="6.6"/>
<circle fill="#444443" cx="451.1" cy="257" r="6.6"/>
<path fill="none" stroke="#10153F" stroke-width="4" stroke-miterlimit="10" d="M307,480.5c0,0,23,4,36,22.5s46.7,55.8,46.7,55.8
	s19.8-23.5,35.8-39.2c16-15.6,30.7-30.6,39.5-33.1s8.7-6,8.7-6"/>
<g>
	<path fill="#10153F" stroke="#FFD655" stroke-width="5" stroke-miterlimit="10" d="M412.7,673.2h-44.5c-23.3,0-42.1-18.9-42.1-42.1
		v-29.2c0-23.3,18.9-42.1,42.1-42.1h44.5c23.3,0,42.1,18.9,42.1,42.1v29.2C454.9,654.3,436,673.2,412.7,673.2z"/>
	<g>
		<g>
			<path fill="#FFD655" d="M357,579c0,21.6-0.5,43.1-0.5,64.7c0,3.9,6,3.9,6,0c0-21.6,0.5-43.1,0.5-64.7
				C363,575.1,357,575.1,357,579L357,579z"/>
		</g>
	</g>
	<g>
		<g>
			<path fill="#FFD655" d="M348,585.4c0-3.5,7.5-4.4,9.9-4.8c5.8-1,12-0.8,17.8,0.2c2,0.4,4.1,0.9,5.8,2c3.3,2.1,2.5,8.5,1.6,11.5
				c-3.1,10.2-17.9,7.9-25.5,6.4c-3.8-0.8-5.4,5-1.6,5.8c11.2,2.3,24.4,3.3,31.5-7.5c4.9-7.4,2.5-19.2-5.8-22.7
				c-7.3-3-16.8-2.7-24.4-1.6c-5.9,0.9-15.2,3.1-15.2,10.7C342,589.3,348,589.3,348,585.4L348,585.4z"/>
		</g>
	</g>
	<g>
		<g>
			<path fill="#FFD655" d="M388.8,630.8c6.3-3.2,15.4-7.3,11.4-16.1c-3.3-7.2-13.1-7.9-18.4-2.5c-5.5,5.6-4,16.8-0.8,23.1
				c4.2,8.3,13.6,10,21.6,6.6c3.5-1.5,2-7.3-1.6-5.8c-4.9,2.1-10.2,2.4-13.8-2.2c-3-4-3.4-9.6-2.3-14.3c1-4.5,6.9-7.3,9.8-2.6
				c2.9,4.6-6.1,7.4-8.9,8.8C382.3,627.4,385.3,632.5,388.8,630.8L388.8,630.8z"/>
		</g>
	</g>
	<g>
		<g>
			<path fill="#FFD655" d="M410.5,583.8c0,10.4-0.3,20.7,0.5,31.1c0.7,10.1,2.6,19.9,2.1,30.1c2-0.3,3.9-0.5,5.9-0.8
				c-2-8.7,3-14.5,7.4-21.3c3.9-6.1,7.4-12.7,12.8-17.7c2.9-2.6-1.4-6.8-4.2-4.2c-6.5,6-10.5,14.1-15.3,21.3
				c-5,7.6-8.5,14.1-6.4,23.5c0.8,3.4,5.7,2.5,5.9-0.8c0.5-9.5-1-18.7-1.9-28.1c-1.1-11-0.7-22-0.7-33
				C416.5,580,410.5,580,410.5,583.8L410.5,583.8z"/>
		</g>
	</g>
	<g>
		<g>
			<path fill="#FFD655" d="M414.6,632.4c7.3,3.5,14.6,7.6,19.3,14.4c2.1,3.2,7.3,0.2,5.2-3c-5.2-7.8-13.1-12.6-21.4-16.6
				C414.2,625.6,411.1,630.7,414.6,632.4L414.6,632.4z"/>
		</g>
	</g>
</g>
</svg>
