<svg xmlns="http://www.w3.org/2000/svg" viewBox="0 0 1179.883 477.75">
  <defs>
    <style>
      .cls-1, .cls-3, .cls-5 {
        fill: none;
      }

      .cls-1 {
        stroke: #efefef;
        stroke-width: 6px;
      }

      .cls-2 {
        fill: #efefef;
      }

      .cls-3 {
        stroke: #6a696b;
        stroke-width: 0.5px;
        opacity: 0.3;
      }

      .cls-4 {
        stroke: none;
      }
    </style>
  </defs>
  <g id="symbols" transform="translate(-134.5 -108)">
    <g id="_4" data-name="4" class="cls-1" transform="translate(849.413 155.977)">
      <ellipse class="cls-4" cx="21.776" cy="21.776" rx="21.776" ry="21.776"/>
      <ellipse class="cls-5" cx="21.776" cy="21.776" rx="18.776" ry="18.776"/>
    </g>
    <g id="_3" data-name="3" class="cls-1" transform="translate(839.413 402.977)">
      <ellipse class="cls-4" cx="16.276" cy="16.276" rx="16.276" ry="16.276"/>
      <ellipse class="cls-5" cx="16.276" cy="16.276" rx="13.276" ry="13.276"/>
    </g>
    <g id="_2" data-name="2" class="cls-1" transform="translate(1205.077 108)">
      <ellipse class="cls-4" cx="13.776" cy="13.776" rx="13.776" ry="13.776"/>
      <ellipse class="cls-5" cx="13.776" cy="13.776" rx="10.776" ry="10.776"/>
    </g>
    <g id="_1" data-name="1" class="cls-1" transform="translate(1252.447 242.405)">
      <ellipse class="cls-4" cx="20.776" cy="20.776" rx="20.776" ry="20.776"/>
      <ellipse class="cls-5" cx="20.776" cy="20.776" rx="17.776" ry="17.776"/>
    </g>
    <path id="_4-2" data-name="4" class="cls-2" d="M26.4,0,41.338,39.1,0,31.626Z" transform="matrix(0.669, -0.743, 0.743, 0.669, 1218.942, 344.725)"/>
    <path id="_3-2" data-name="3" class="cls-2" d="M26.4,0,41.338,39.1,0,31.626Z" transform="translate(819.787 266.844) rotate(6)"/>
    <path id="_2-2" data-name="2" class="cls-2" d="M21.141,0,33.108,31.314,0,25.33Z" transform="translate(932.613 202.199) rotate(-31)"/>
    <path id="_1-2" data-name="1" class="cls-2" d="M21.141,0,33.108,31.314,0,25.33Z" transform="translate(1294.811 135.739) rotate(67)"/>
    <path id="_9" data-name="9" class="cls-2" d="M20.742,61.074l3.753-10.9L13.8,46.277l2.1-5.769,1.768-5.135-10.7-3.893.05-.137L6.83,31.27l4.093-10.663L.139,16.681l.05-.137L0,16.472,6.322,0l5.846,2.244L8.075,12.907l10.785,3.926-.05.136.188.072L14.9,27.705l10.786,3.925-2.1,5.766-1.77,5.139,10.7,3.893-2.086,5.731L26.661,63.113Z" transform="matrix(-0.07, 0.998, -0.998, -0.07, 969.424, 263.945)"/>
    <path id="_8" data-name="8" class="cls-2" d="M20.742,61.074l3.753-10.9L13.8,46.277l2.1-5.769,1.768-5.135-10.7-3.893.05-.137L6.83,31.27l4.093-10.663L.139,16.681l.05-.137L0,16.472,6.322,0l5.846,2.244L8.075,12.907l10.785,3.926-.05.136.188.072L14.9,27.705l10.786,3.925-2.1,5.766-1.77,5.139,10.7,3.893-2.086,5.731L26.661,63.113Z" transform="translate(1275.424 545.945) rotate(94)"/>
    <path id="_7" data-name="7" class="cls-2" d="M19.5,57.4l3.528-10.248L12.969,43.5l1.973-5.423L16.6,33.247,6.549,29.588l.047-.129-.176-.068,3.847-10.022L.13,15.679l.047-.129L0,15.482,5.942,0l5.494,2.109L7.589,12.132l10.136,3.69-.047.128.177.068L14.008,26.04,24.145,29.73l-1.973,5.419-1.663,4.83,10.055,3.659L28.6,49.025,25.059,59.32Z" transform="translate(1177.419 174.279) rotate(-38)"/>
    <path id="_6" data-name="6" class="cls-2" d="M9.7,28.03v-9.7H0V9.7H9.7V0h8.625V9.7h9.7v8.624h-9.7v9.7Z" transform="translate(948.821 118.537)"/>
    <path id="_5" data-name="5" class="cls-2" d="M9.7,28.03v-9.7H0V9.7H9.7V0h8.625V9.7h9.7v8.624h-9.7v9.7Z" transform="translate(876.713 343.938)"/>
    <path id="_4-3" data-name="4" class="cls-2" d="M10.838,31.31V20.472H0V10.839H10.838V0h9.634V10.839H31.31v9.633H20.472V31.31Z" transform="matrix(0.839, -0.545, 0.545, 0.839, 1271.072, 401.35)"/>
    <path id="_3-3" data-name="3" class="cls-2" d="M7.334,21.189V13.854H0V7.335H7.334V0h6.52V7.335h7.334v6.519H13.854v7.334Z" transform="translate(833.51 552.013) rotate(-13)"/>
    <path id="_2-3" data-name="2" class="cls-2" d="M12.932,37.358V24.426H0V12.933H12.932V0H24.426V12.933H37.357V24.426H24.426V37.358Z" transform="matrix(0.998, 0.07, -0.07, 0.998, 1178.382, 231.771)"/>
    <path id="_1-3" data-name="1" class="cls-2" d="M19.5,57.4l3.528-10.248L12.969,43.5l1.973-5.423L16.6,33.247,6.549,29.588l.047-.129-.176-.068,3.847-10.022L.13,15.679l.047-.129L0,15.482,5.942,0l5.494,2.109L7.589,12.132l10.136,3.69-.047.128.177.068L14.008,26.04,24.145,29.73l-1.973,5.419-1.663,4.83,10.055,3.659L28.6,49.025,25.059,59.32Z" transform="translate(1004.519 166.427) rotate(-42)"/>
    <rect id="_2-4" data-name="2" class="cls-2" width="32" height="32" transform="translate(1262.03 458.21) rotate(16)"/>
    <rect id="_1-4" data-name="1" class="cls-2" width="32" height="32" transform="matrix(0.819, -0.574, 0.574, 0.819, 804.717, 490.071)"/>
    <line id="line" class="cls-3" x2="1171" transform="translate(134.5 585.5)"/>
  </g>
</svg>
